<svg width="330" height="175" viewBox="0 0 330 175" fill="none" xmlns="http://www.w3.org/2000/svg">
<path d="M306.365 0.54267C317.734 2.43465 328.138 16.3779 329.173 29.3976C330.177 41.9869 330.403 72.2318 329.08 84.4803C326.917 104.413 309.042 115.039 292.848 112.555V173H272V0.54267C282.591 1.80698 296.139 -1.16101 306.365 0.54267ZM292.085 90.3267C299.906 90.3894 308.162 91.5103 309.112 80.1494C310.45 64.1527 308.318 45.215 308.73 28.9403C305.501 21.0048 298.435 22.8699 292.085 22.7623V90.3267Z" fill="#BE25FF"/>
<path d="M233.885 0.0141052C246.806 -0.437087 258.601 9.98458 261.795 24.3166C262.201 61.0047 264.974 101.417 262.929 137.982C262.347 148.368 259.765 158.639 252.619 165.549C235.662 181.942 208.678 169.724 206.625 144.121C203.653 107.018 208.769 64.4285 206.839 26.7672C209.283 11.9663 220.664 0.465298 233.885 0.0141052ZM232.284 22.8126C228.845 23.6177 226.731 26.9707 226.394 30.9164V142.343C227.481 152.942 241.766 155.401 243.122 139.68C245.994 106.531 240.969 68.1177 243.16 34.4109C242.762 26.5991 239.759 21.0521 232.284 22.8038V22.8126Z" fill="#C725D9"/>
<path d="M154.53 114.089V174.724H133.593V1.72412H168.106C175.749 1.72412 186.832 14.7578 189.223 22.9252C192.162 32.9726 191.912 71.507 190.896 83.2094C188.981 105.22 172.866 116.302 154.538 114.08L154.53 114.089ZM153.757 24.0226V91.7996C159.72 91.9165 168.403 92.8071 170.294 84.5047C171.857 77.6326 171.56 42.5882 170.857 34.2319C169.888 22.7004 161.783 23.7348 153.757 24.0226Z" fill="#D125B4"/>
<path d="M91.0965 0.682017C120.003 0.0144116 121.746 29.5384 119.548 54.8986C116.562 89.3242 66.8343 88.9026 63.6713 55.7858C62.8613 47.3266 62.8382 23.7935 66.1091 16.7485C70.6453 6.954 81.6076 0.901624 91.0965 0.682017ZM87.9567 20.7102C84.8014 21.4481 82.0319 24.4962 81.4533 28.1153C80.7436 32.6041 80.7667 47.5989 81.3453 52.2106C82.6877 62.9538 97.623 64.3769 100.801 56.2163C102.668 51.4288 102.745 28.8532 100.308 24.5401C97.8699 20.227 91.9605 19.7615 87.9567 20.7014V20.7102Z" fill="#DA248E"/>
<path d="M90.8801 95.0111C119.786 94.3435 121.53 123.867 119.331 149.228C116.346 183.653 66.6179 183.232 63.4549 150.115C62.6449 141.656 62.6217 118.123 65.8927 111.078C70.4365 101.292 81.3989 95.2395 90.8878 95.0199L90.8801 95.0111ZM87.7402 115.039C84.585 115.777 81.8155 118.825 81.2369 122.444C80.5272 126.933 80.5503 141.928 81.1289 146.54C82.4712 157.283 97.4066 158.706 100.585 150.545C102.452 145.758 102.529 123.182 100.091 118.869C97.6997 114.635 91.7441 114.091 87.7402 115.031V115.039Z" fill="#DA248E"/>
<path d="M25.1327 1.72412V150.204C25.1327 150.366 27.3829 152.435 27.5485 152.435H58V174.724H13.0534C8.53342 174.724 0 166.809 0 162.689V1.72412H25.1327Z" fill="#E32468"/>
</svg>
